<!DOCTYPE svg PUBLIC "-//W3C//DTD SVG 1.1//EN" "http://www.w3.org/Graphics/SVG/1.1/DTD/svg11.dtd">
<!-- Uploaded to: SVG Repo, www.svgrepo.com, Transformed by: SVG Repo Mixer Tools -->
<svg width="800px" height="800px" viewBox="-2.4 -2.4 28.80 28.80" fill="none" xmlns="http://www.w3.org/2000/svg">
<g id="SVGRepo_bgCarrier" stroke-width="0">
<rect x="-2.4" y="-2.4" width="28.80" height="28.80" rx="14.4" fill="#000000" strokewidth="0"/>
</g>
<g id="SVGRepo_tracerCarrier" stroke-linecap="round" stroke-linejoin="round"/>
<g id="SVGRepo_iconCarrier"> <path d="M18.7491 9.70957V9.00497C18.7491 5.13623 15.7274 2 12 2C8.27256 2 5.25087 5.13623 5.25087 9.00497V9.70957C5.25087 10.5552 5.00972 11.3818 4.5578 12.0854L3.45036 13.8095C2.43882 15.3843 3.21105 17.5249 4.97036 18.0229C9.57274 19.3257 14.4273 19.3257 19.0296 18.0229C20.789 17.5249 21.5612 15.3843 20.5496 13.8095L19.4422 12.0854C18.9903 11.3818 18.7491 10.5552 18.7491 9.70957Z" stroke="#ffffff" stroke-width="1.5"/> <path d="M7.5 19C8.15503 20.7478 9.92246 22 12 22C14.0775 22 15.845 20.7478 16.5 19" stroke="#ffffff" stroke-width="1.5" stroke-linecap="round"/> <path d="M12 6V10" stroke="#ffffff" stroke-width="1.5" stroke-linecap="round"/> </g>
</svg>