<!DOCTYPE svg PUBLIC "-//W3C//DTD SVG 1.1//EN" "http://www.w3.org/Graphics/SVG/1.1/DTD/svg11.dtd">
<!-- Uploaded to: SVG Repo, www.svgrepo.com, Transformed by: SVG Repo Mixer Tools -->
<svg fill="#ffffff" width="800px" height="800px" viewBox="-3.2 -3.2 38.40 38.40" version="1.1" xmlns="http://www.w3.org/2000/svg" stroke="#ffffff">
<g id="SVGRepo_bgCarrier" stroke-width="0">
<rect x="-3.2" y="-3.2" width="38.40" height="38.40" rx="19.2" fill="#000000" strokewidth="0"/>
</g>
<g id="SVGRepo_tracerCarrier" stroke-linecap="round" stroke-linejoin="round"/>
<g id="SVGRepo_iconCarrier"> <title>exclamation</title> <path d="M10.656 8.864q0-2.208 1.568-3.776t3.776-1.568 3.776 1.568 1.6 3.776q0 0.256-0.064 0.448l-1.76 6.944q-0.096 1.408-1.12 2.368t-2.432 0.96q-1.376 0-2.4-0.928t-1.152-2.304q-0.32-0.96-0.672-2.112t-0.736-2.784-0.384-2.592zM12.416 24.928q0-1.472 1.056-2.496t2.528-1.056 2.528 1.056 1.056 2.496q0 1.504-1.056 2.528t-2.528 1.056-2.528-1.056-1.056-2.528z"/> </g>
</svg>