<!DOCTYPE svg PUBLIC "-//W3C//DTD SVG 1.1//EN" "http://www.w3.org/Graphics/SVG/1.1/DTD/svg11.dtd">
<!-- Uploaded to: SVG Repo, www.svgrepo.com, Transformed by: SVG Repo Mixer Tools -->
<svg version="1.1" id="Layer_1" xmlns="http://www.w3.org/2000/svg" xmlns:xlink="http://www.w3.org/1999/xlink" viewBox="0 0 495.2 495.2" xml:space="preserve" width="64px" height="64px" fill="#000000">
<g id="SVGRepo_bgCarrier" stroke-width="0"/>
<g id="SVGRepo_tracerCarrier" stroke-linecap="round" stroke-linejoin="round"/>
<g id="SVGRepo_iconCarrier"> <rect style="fill:#0A5B7F;" width="264" height="264"/> <polyline style="fill:#074568;" points="264,0 264,264 0,264 "/> <path style="fill:#2E9BCC;" d="M384,344c0,22.4-18.4,40-40,40H162.4c-22.4,0-42.4-18.4-42.4-40V162.4c0-22.4,20-42.4,42.4-42.4H344 c22.4,0,40,20,40,42.4V344z"/> <path style="fill:#2690C6;" d="M264,264V120H162.4c-22.4,0-42.4,20-42.4,42.4V264H264z"/> <polyline style="fill:#1474AF;" points="120,264 264,264 264,120 "/> <circle style="fill:#398e75;" cx="364.8" cy="364.8" r="130.4"/> <path style="fill:#CE6ED6;" d="M364.8,234.4c-72,0-130.4,58.4-130.4,131.2c0,6.4,0.8,11.2,1.6,19.2h108c22.4,0,40-18.4,40-40V236 C376,235.2,371.2,234.4,364.8,234.4z"/> <path style="fill:#B751BC;" d="M234.4,364.8c0,6.4,0.8,11.2,1.6,19.2h108c22.4,0,40-18.4,40-40V236c-8-0.8-12.8-1.6-19.2-1.6"/> </g>
</svg>